<svg width="32" height="32" viewBox="0 0 32 32" fill="none" xmlns="http://www.w3.org/2000/svg">
  <!-- Bulb base -->
  <path d="M16 4C12.6863 4 10 6.68629 10 10C10 12.5 11.5 14.5 13 15.5V18C13 19.1046 13.8954 20 15 20H17C18.1046 20 19 19.1046 19 18V15.5C20.5 14.5 22 12.5 22 10C22 6.68629 19.3137 4 16 4Z" fill="#1f2937"/>
  <!-- Bulb screw base -->
  <rect x="14" y="20" width="4" height="3" rx="1" fill="#374151"/>
  <!-- Sprout inside bulb -->
  <path d="M16 8C15.5 8 15 8.5 15 9C15 9.5 15.5 10 16 10C16.5 10 17 9.5 17 9C17 8.5 16.5 8 16 8Z" fill="#10b981"/>
  <path d="M16 10L17.5 12L16 14L14.5 12L16 10Z" fill="#10b981"/>
  <path d="M16 12L17 13.5L16 15L15 13.5L16 12Z" fill="#10b981"/>
</svg>
