<svg width="32" height="32" viewBox="0 0 32 32" fill="none" xmlns="http://www.w3.org/2000/svg">
  <!-- Background circle matching navbar -->
  <rect width="32" height="32" rx="8" fill="#1e293b"/>
  <!-- Lightbulb icon -->
  <path d="M16 6C12.6863 6 10 8.68629 10 12C10 14.5 11.5 16.5 13 17.5V20C13 21.1046 13.8954 22 15 22H17C18.1046 22 19 21.1046 19 20V17.5C20.5 16.5 22 14.5 22 12C22 8.68629 19.3137 6 16 6Z" fill="white"/>
  <!-- Bulb screw base -->
  <rect x="14" y="22" width="4" height="2" rx="1" fill="white"/>
  <!-- Sprout inside bulb -->
  <path d="M16 10C15.5 10 15 10.5 15 11C15 11.5 15.5 12 16 12C16.5 12 17 11.5 17 11C17 10.5 16.5 10 16 10Z" fill="#10b981"/>
  <path d="M16 12L17.5 14L16 16L14.5 14L16 12Z" fill="#10b981"/>
  <path d="M16 14L17 15.5L16 17L15 15.5L16 14Z" fill="#10b981"/>
</svg>
